<?xml version="1.0" encoding="UTF-8"?>
<svg version="1.1" xmlns="http://www.w3.org/2000/svg" width="500" height="500">
<path d="M0 0 C165 0 330 0 500 0 C500 165 500 330 500 500 C335 500 170 500 0 500 C0 335 0 170 0 0 Z " fill="#000000" transform="translate(0,0)"/>
<path d="M0 0 C11.3880267 -3.5389087 23.89342263 -5.22053999 35 0 C52.71240565 12.04996695 67.17468926 30.02790932 81.17274475 46.05747986 C83.24119283 48.25640749 84.17547205 48.94690551 87.1809845 49.14044189 C88.08523666 49.1472699 88.98948883 49.1540979 89.92114258 49.16113281 C90.94593216 49.17074036 91.97072174 49.1803479 93.02656555 49.19024658 C94.13799423 49.19449646 95.24942291 49.19874634 96.39453125 49.203125 C98.10379036 49.21167511 98.10379036 49.21167511 99.84757996 49.22039795 C102.26271636 49.22985769 104.67786572 49.23638578 107.09301758 49.24023438 C110.7868507 49.24993266 114.48012586 49.28094464 118.17382812 49.3125 C120.51822586 49.31903061 122.86262757 49.32428085 125.20703125 49.328125 C126.31238724 49.3404718 127.41774323 49.3528186 128.55659485 49.36553955 C129.59084091 49.36253845 130.62508698 49.35953735 131.69067383 49.35644531 C132.59731277 49.36009094 133.50395172 49.36373657 134.43806458 49.36749268 C139.77491135 48.60195734 142.83020069 45.37609616 146.23486328 41.43676758 C147.04393631 40.51627625 147.85300934 39.59578491 148.68659973 38.6473999 C149.99028755 37.16097992 149.99028755 37.16097992 151.3203125 35.64453125 C185.10009549 -2.05152869 185.10009549 -2.05152869 198.85209656 -3.25569153 C204.36280012 -3.31860073 209.86265375 -2.32054124 215.2504425 -1.24015808 C226.59170134 0.93366338 238.21954697 0.42875246 249.72250366 0.47457886 C256.07012426 0.51527594 262.41545083 0.64929898 268.76171875 0.78125 C270.94880674 0.82383118 273.13589934 0.86617604 275.32299805 0.90820312 C276.88199997 0.93873734 278.44100116 0.96930876 280 1 C279.38511719 1.70576172 279.38511719 1.70576172 278.7578125 2.42578125 C277.94957031 3.35970703 277.94957031 3.35970703 277.125 4.3125 C276.59132813 4.92738281 276.05765625 5.54226562 275.5078125 6.17578125 C273.8359553 8.13498212 273.8359553 8.13498212 272 11 C272.845625 11.103125 273.69125 11.20625 274.5625 11.3125 C287.28963676 13.85792735 295.24859086 24.095482 304.0625 32.9296875 C305.10467206 33.97118459 306.1469924 35.0125333 307.18945312 36.05374146 C309.35595505 38.21878007 311.52066512 40.38558974 313.68408203 42.55371094 C316.4627209 45.33809652 319.24589323 48.11790093 322.03038025 50.89643669 C324.17506138 53.03751762 326.31737176 55.1809578 328.45895386 57.32513809 C329.48532648 58.35217892 330.51244554 59.37847434 331.54031372 60.4040184 C332.96678733 61.82796906 334.3897397 63.25544461 335.8125 64.68310547 C336.62332031 65.49472137 337.43414062 66.30633728 338.26953125 67.14254761 C340 69 340 69 340 70 C330.88431044 72.69890846 320.86966545 74.08675027 312 70 C298.30814007 60.79419492 287.19579839 46.9015201 276.45675659 34.5249176 C273.62389672 31.55950945 270.82671036 31.7317763 266.875 31.4375 C265.23144531 31.31181641 265.23144531 31.31181641 263.5546875 31.18359375 C262.71164062 31.12300781 261.86859375 31.06242187 261 31 C261 28.03 261 25.06 261 22 C253.59819654 28.1964192 246.87469965 35.0237698 240.08405495 41.87134552 C237.92150684 44.05143761 235.75530181 46.22783524 233.58805847 48.40325928 C227.43207603 54.58357074 221.28186578 60.76960314 215.13598633 66.95996094 C211.36387229 70.75886368 207.58689579 74.55287546 203.80689049 78.34392548 C202.37169447 79.78532081 200.93839764 81.22860979 199.5070591 82.67383575 C197.50901073 84.69111433 195.5048644 86.70214408 193.49926758 88.71191406 C192.91266357 89.30727966 192.32605957 89.90264526 191.72167969 90.51605225 C184.32002699 97.90017463 177.31063144 100.11164977 166.9375 100.125 C165.308125 100.08375 163.67875 100.0425 162 100 C162 93.4 162 86.8 162 80 C164.7992395 79.89002686 164.7992395 79.89002686 167.6550293 79.77783203 C177.19821669 78.2790878 182.13598851 72.25779754 188.51953125 65.5546875 C189.7540513 64.29961364 190.99105054 63.04697404 192.23039246 61.79666138 C195.46271072 58.52263675 198.66060402 55.21695189 201.85211182 51.90319824 C205.12383833 48.51830232 208.42750978 45.16489808 211.72851562 41.80859375 C218.18373836 35.23591877 224.60298114 28.62930254 231 22 C230.11449463 21.95319092 229.22898926 21.90638184 228.31665039 21.8581543 C227.15125732 21.78508057 225.98586426 21.71200684 224.78515625 21.63671875 C223.63152588 21.56928467 222.47789551 21.50185059 221.28930664 21.43237305 C218.12642739 21.01661864 216.18571426 20.36065746 213.4375 18.8125 C212.303125 18.214375 211.16875 17.61625 210 17 C206.32779621 18.16097565 204.02799618 20.7477521 201.37426758 23.44628906 C200.46264359 24.36774719 199.55101959 25.28920532 198.61177063 26.23858643 C198.12871271 26.73150429 197.64565479 27.22442215 197.14795876 27.73227692 C195.62547059 29.28506499 194.09628523 30.83096409 192.56510925 32.37518311 C188.21371291 36.76619769 183.87499244 41.16965779 179.53979492 45.57666016 C176.88324741 48.27626023 174.21915901 50.96824008 171.55069542 53.65605927 C170.54197024 54.67526033 169.53616288 55.69735878 168.53351784 56.72254181 C160.40450355 65.03385551 152.56815143 72.39716593 141 75 C135.39 75 129.78 75 124 75 C124 91.5 124 108 124 125 C115.75 125 107.5 125 99 125 C99 108.5 99 92 99 75 C93.06 75 87.12 75 81 75 C67.71149185 71.52686719 58.5000432 59.63893433 49.07727051 50.1524353 C47.14608124 48.20830366 45.21162825 46.26747055 43.27636719 44.32739258 C39.18139329 40.22109729 35.09042192 36.11082901 31 32 C26.22886006 27.20523436 21.45608055 22.41212389 16.67910767 17.62316895 C14.77254384 15.71012052 12.86901073 13.79409095 10.96557617 11.87792969 C9.80532257 10.71404636 8.64492992 9.55030163 7.484375 8.38671875 C6.69118614 7.58578041 6.69118614 7.58578041 5.88197327 6.7686615 C3.19949854 4.04277378 3.19949854 4.04277378 0 2 C0 1.34 0 0.68 0 0 Z " fill="#F9FBF5" transform="translate(82,190)"/>
<path d="M0 0 C8.25 0 16.5 0 25 0 C25 8.25 25 16.5 25 25 C16.75 25 8.5 25 0 25 C0 16.75 0 8.5 0 0 Z " fill="#F7F9F2" transform="translate(181,190)"/>
</svg>
